HIERARCHY
ROOT Hips
{
  OFFSET -178.033 92.7154 1206.49
  CHANNELS 6 Xposition Yposition Zposition Zrotation Xrotation Yrotation
  JOINT Spine
  {
    OFFSET 0 8 0
    CHANNELS 6 Xposition Yposition Zposition Zrotation Xrotation Yrotation
    JOINT Spine1
    {
      OFFSET 0 8 0
      CHANNELS 6 Xposition Yposition Zposition Zrotation Xrotation Yrotation
      JOINT Spine2
      {
        OFFSET 0 8 0
        CHANNELS 6 Xposition Yposition Zposition Zrotation Xrotation Yrotation
        JOINT Spine3
        {
          OFFSET 0 8 0
          CHANNELS 6 Xposition Yposition Zposition Zrotation Xrotation Yrotation
          JOINT Neck
          {
            OFFSET 0 17 0
            CHANNELS 6 Xposition Yposition Zposition Zrotation Xrotation Yrotation
            JOINT Head
            {
              OFFSET 0 10.8 0
              CHANNELS 6 Xposition Yposition Zposition Zrotation Xrotation Yrotation
              End Site
              {
                OFFSET 0 20.25 0
              }
            }
          }
          JOINT LeftShoulder
          {
            OFFSET 5 17 0
            CHANNELS 6 Xposition Yposition Zposition Zrotation Xrotation Yrotation
            JOINT LeftShoulder2
            {
              OFFSET 6.45 0 0
              CHANNELS 6 Xposition Yposition Zposition Zrotation Xrotation Yrotation
              JOINT LeftArm
              {
                OFFSET 6.45 0 0
                CHANNELS 6 Xposition Yposition Zposition Zrotation Xrotation Yrotation
                JOINT LeftForeArm
                {
                  OFFSET 0 -32.4 -2
                  CHANNELS 6 Xposition Yposition Zposition Zrotation Xrotation Yrotation
                  JOINT LeftHand
                  {
                    OFFSET 0 -25.65 2
                    CHANNELS 6 Xposition Yposition Zposition Zrotation Xrotation Yrotation
                    JOINT LeftHandThumb1
                    {
                      OFFSET -0.5 -1.5 2.65
                      CHANNELS 6 Xposition Yposition Zposition Zrotation Xrotation Yrotation
                      JOINT LeftHandThumb2
                      {
                        OFFSET 0 -3.8 3.7
                        CHANNELS 6 Xposition Yposition Zposition Zrotation Xrotation Yrotation
                        JOINT LeftHandThumb3
                        {
                          OFFSET 0 -3 2.7
                          CHANNELS 6 Xposition Yposition Zposition Zrotation Xrotation Yrotation
                          End Site
                          {
                            OFFSET 0 -2.3 1.8
                          }
                        }
                      }
                    }
                    JOINT LeftHandIndex
                    {
                      OFFSET 0 -1.9 1.6
                      CHANNELS 6 Xposition Yposition Zposition Zrotation Xrotation Yrotation
                      JOINT LeftHandIndex1
                      {
                        OFFSET 0 -8.3 1.9
                        CHANNELS 6 Xposition Yposition Zposition Zrotation Xrotation Yrotation
                        JOINT LeftHandIndex2
                        {
                          OFFSET 0 -4.5 0
                          CHANNELS 6 Xposition Yposition Zposition Zrotation Xrotation Yrotation
                          JOINT LeftHandIndex3
                          {
                            OFFSET 0 -3.4 0
                            CHANNELS 6 Xposition Yposition Zposition Zrotation Xrotation Yrotation
                            End Site
                            {
                              OFFSET 0 -2.6 0
                            }
                          }
                        }
                      }
                    }
                    JOINT LeftHandMiddle
                    {
                      OFFSET -0.25 -2.2 0.4
                      CHANNELS 6 Xposition Yposition Zposition Zrotation Xrotation Yrotation
                      JOINT LeftHandMiddle1
                      {
                        OFFSET 0 -8.3 1
                        CHANNELS 6 Xposition Yposition Zposition Zrotation Xrotation Yrotation
                        JOINT LeftHandMiddle2
                        {
                          OFFSET 0 -4.65 0
                          CHANNELS 6 Xposition Yposition Zposition Zrotation Xrotation Yrotation
                          JOINT LeftHandMiddle3
                          {
                            OFFSET 0 -3.3 0
                            CHANNELS 6 Xposition Yposition Zposition Zrotation Xrotation Yrotation
                            End Site
                            {
                              OFFSET 0 -2.7 0
                            }
                          }
                        }
                      }
                    }
                    JOINT LeftHandRing
                    {
                      OFFSET -0.5 -2.15 -0.8
                      CHANNELS 6 Xposition Yposition Zposition Zrotation Xrotation Yrotation
                      JOINT LeftHandRing1
                      {
                        OFFSET 0 -7.75 -0.2
                        CHANNELS 6 Xposition Yposition Zposition Zrotation Xrotation Yrotation
                        JOINT LeftHandRing2
                        {
                          OFFSET 0 -3.8 0
                          CHANNELS 6 Xposition Yposition Zposition Zrotation Xrotation Yrotation
                          JOINT LeftHandRing3
                          {
                            OFFSET 0 -3.4 0
                            CHANNELS 6 Xposition Yposition Zposition Zrotation Xrotation Yrotation
                            End Site
                            {
                              OFFSET 0 -2.6 0
                            }
                          }
                        }
                      }
                    }
                    JOINT LeftHandPinky
                    {
                      OFFSET -0.75 -1.75 -1.85
                      CHANNELS 6 Xposition Yposition Zposition Zrotation Xrotation Yrotation
                      JOINT LeftHandPinky1
                      {
                        OFFSET 0 -7.15 -1
                        CHANNELS 6 Xposition Yposition Zposition Zrotation Xrotation Yrotation
                        JOINT LeftHandPinky2
                        {
                          OFFSET 0 -3 0
                          CHANNELS 6 Xposition Yposition Zposition Zrotation Xrotation Yrotation
                          JOINT LeftHandPinky3
                          {
                            OFFSET 0 -2.35 0
                            CHANNELS 6 Xposition Yposition Zposition Zrotation Xrotation Yrotation
                            End Site
                            {
                              OFFSET 0 -2.1 0
                            }
                          }
                        }
                      }
                    }
                  }
                }
              }
            }
          }
          JOINT RightShoulder
          {
            OFFSET -5 17 0
            CHANNELS 6 Xposition Yposition Zposition Zrotation Xrotation Yrotation
            JOINT RightShoulder2
            {
              OFFSET -6.45 0 0
              CHANNELS 6 Xposition Yposition Zposition Zrotation Xrotation Yrotation
              JOINT RightArm
              {
                OFFSET -6.45 0 0
                CHANNELS 6 Xposition Yposition Zposition Zrotation Xrotation Yrotation
                JOINT RightForeArm
                {
                  OFFSET 0 -32.4 -2
                  CHANNELS 6 Xposition Yposition Zposition Zrotation Xrotation Yrotation
                  JOINT RightHand
                  {
                    OFFSET 0 -25.65 2
                    CHANNELS 6 Xposition Yposition Zposition Zrotation Xrotation Yrotation
                    JOINT RightHandThumb1
                    {
                      OFFSET 0.5 -1.5 2.65
                      CHANNELS 6 Xposition Yposition Zposition Zrotation Xrotation Yrotation
                      JOINT RightHandThumb2
                      {
                        OFFSET 0 -3.8 3.7
                        CHANNELS 6 Xposition Yposition Zposition Zrotation Xrotation Yrotation
                        JOINT RightHandThumb3
                        {
                          OFFSET 0 -3 2.7
                          CHANNELS 6 Xposition Yposition Zposition Zrotation Xrotation Yrotation
                          End Site
                          {
                            OFFSET 0 -2.3 1.8
                          }
                        }
                      }
                    }
                    JOINT RightHandIndex
                    {
                      OFFSET 0 -1.9 1.6
                      CHANNELS 6 Xposition Yposition Zposition Zrotation Xrotation Yrotation
                      JOINT RightHandIndex1
                      {
                        OFFSET 0 -8.3 1.9
                        CHANNELS 6 Xposition Yposition Zposition Zrotation Xrotation Yrotation
                        JOINT RightHandIndex2
                        {
                          OFFSET 0 -4.5 0
                          CHANNELS 6 Xposition Yposition Zposition Zrotation Xrotation Yrotation
                          JOINT RightHandIndex3
                          {
                            OFFSET 0 -3.4 0
                            CHANNELS 6 Xposition Yposition Zposition Zrotation Xrotation Yrotation
                            End Site
                            {
                              OFFSET 0 -2.6 0
                            }
                          }
                        }
                      }
                    }
                    JOINT RightHandMiddle
                    {
                      OFFSET 0.25 -2.2 0.4
                      CHANNELS 6 Xposition Yposition Zposition Zrotation Xrotation Yrotation
                      JOINT RightHandMiddle1
                      {
                        OFFSET 0 -8.3 1
                        CHANNELS 6 Xposition Yposition Zposition Zrotation Xrotation Yrotation
                        JOINT RightHandMiddle2
                        {
                          OFFSET 0 -4.65 0
                          CHANNELS 6 Xposition Yposition Zposition Zrotation Xrotation Yrotation
                          JOINT RightHandMiddle3
                          {
                            OFFSET 0 -3.3 0
                            CHANNELS 6 Xposition Yposition Zposition Zrotation Xrotation Yrotation
                            End Site
                            {
                              OFFSET 0 -2.7 0
                            }
                          }
                        }
                      }
                    }
                    JOINT RightHandRing
                    {
                      OFFSET 0.5 -2.15 -0.8
                      CHANNELS 6 Xposition Yposition Zposition Zrotation Xrotation Yrotation
                      JOINT RightHandRing1
                      {
                        OFFSET 0 -7.75 -0.2
                        CHANNELS 6 Xposition Yposition Zposition Zrotation Xrotation Yrotation
                        JOINT RightHandRing2
                        {
                          OFFSET 0 -3.8 0
                          CHANNELS 6 Xposition Yposition Zposition Zrotation Xrotation Yrotation
                          JOINT RightHandRing3
                          {
                            OFFSET 0 -3.4 0
                            CHANNELS 6 Xposition Yposition Zposition Zrotation Xrotation Yrotation
                            End Site
                            {
                              OFFSET 0 -2.6 0
                            }
                          }
                        }
                      }
                    }
                    JOINT RightHandPinky
                    {
                      OFFSET 0.75 -1.75 -1.85
                      CHANNELS 6 Xposition Yposition Zposition Zrotation Xrotation Yrotation
                      JOINT RightHandPinky1
                      {
                        OFFSET 0 -7.15 -1
                        CHANNELS 6 Xposition Yposition Zposition Zrotation Xrotation Yrotation
                        JOINT RightHandPinky2
                        {
                          OFFSET 0 -3 0
                          CHANNELS 6 Xposition Yposition Zposition Zrotation Xrotation Yrotation
                          JOINT RightHandPinky3
                          {
                            OFFSET 0 -2.35 0
                            CHANNELS 6 Xposition Yposition Zposition Zrotation Xrotation Yrotation
                            End Site
                            {
                              OFFSET 0 -2.1 0
                            }
                          }
                        }
                      }
                    }
                  }
                }
              }
            }
          }
        }
      }
    }
  }
  JOINT LeftUpLeg
  {
    OFFSET 8 0 0
    CHANNELS 6 Xposition Yposition Zposition Zrotation Xrotation Yrotation
    JOINT LeftLeg
    {
      OFFSET 0 -45 -1
      CHANNELS 6 Xposition Yposition Zposition Zrotation Xrotation Yrotation
      JOINT LeftFoot
      {
        OFFSET 0 -41 -2
        CHANNELS 6 Xposition Yposition Zposition Zrotation Xrotation Yrotation
        JOINT LeftToeBase
        {
          OFFSET 0 -7.5 12.5
          CHANNELS 6 Xposition Yposition Zposition Zrotation Xrotation Yrotation
          JOINT LeftFootToe
          {
            OFFSET 0 0 4
            CHANNELS 6 Xposition Yposition Zposition Zrotation Xrotation Yrotation
            End Site
            {
              OFFSET 0 0 0
            }
          }
        }
      }
    }
  }
  JOINT RightUpLeg
  {
    OFFSET -8 0 0
    CHANNELS 6 Xposition Yposition Zposition Zrotation Xrotation Yrotation
    JOINT RightLeg
    {
      OFFSET 0 -45 -1
      CHANNELS 6 Xposition Yposition Zposition Zrotation Xrotation Yrotation
      JOINT RightFoot
      {
        OFFSET 0 -41 -2
        CHANNELS 6 Xposition Yposition Zposition Zrotation Xrotation Yrotation
        JOINT RightToeBase
        {
          OFFSET 0 -7.5 12.5
          CHANNELS 6 Xposition Yposition Zposition Zrotation Xrotation Yrotation
          JOINT RightFootToe
          {
            OFFSET 0 0 4
            CHANNELS 6 Xposition Yposition Zposition Zrotation Xrotation Yrotation
            End Site
            {
              OFFSET 0 0 0
            }
          }
        }
      }
    }
  }
}
MOTION
Frames:	3
Frame Time:	0.0111111
-149.477 90.7591 1238.99 4.40608 -2.81536 157.912 -5.68434e-14 8 0 11.8883 18.1782 2.36277 -1.7053e-13 8 0 -0.731401 6.90651 2.92899 0 8 0 -0.321203 3.46185 1.45237 2.84217e-14 8 -2.27374e-13 -0.320418 3.45441 1.44922 1.98952e-13 17 0 2.83546 2.81302 -3.41274 -8.52651e-14 10.8 0 6.89775 6.30409 -8.20683 5 17 0 -6.1293 0.975336 -7.1436 6.45 -2.27374e-13 0 -0.406544 0.0631538 1.97026 6.45 0 -2.27374e-13 41.3055 13.4026 9.631 0 -32.4 -2 12.6735 -44.8378 -16.3525 -1.13687e-13 -25.65 2 -52.9159 -64.9014 -71.5514 -0.5 -1.5 2.65 -7.75416 1.23321 101.019 0 -3.8 3.7 -0.0900922 14.0102 0.00475181 1.7053e-13 -3 2.7 -0.0236852 64.6145 0.0181371 -1.13687e-13 -1.9 1.6 9.54166e-15 1.59028e-15 6.36111e-15 -1.13687e-13 -8.3 1.9 -34.2538 17.905 6.05876 2.27374e-13 -4.5 0 -85.719 -0.00213224 0.00221304 -1.13687e-13 -3.4 0 -77.534 0.00152037 0.00140185 -0.25 -2.2 0.4 9.54166e-15 1.59028e-15 6.36111e-15 1.13687e-13 -8.3 1 -41.3204 15.6291 7.26405 -2.27374e-13 -4.65 -2.27374e-13 -68.6904 0.00446838 -0.0111584 0 -3.3 0 -90.0002 -9.54166e-15 1.59028e-14 -0.5 -2.15 -0.8 9.54166e-15 1.59028e-15 6.36111e-15 -1.13687e-13 -7.75 -0.2 -54.6313 9.26154 7.8506 2.27374e-13 -3.8 5.68434e-14 -50.9614 -0.00261604 0.00194171 1.13687e-13 -3.4 -2.27374e-13 -90.0002 0.00281162 -2.54444e-14 -0.75 -1.75 -1.85 9.54166e-15 1.59028e-15 6.36111e-15 0 -7.15 -1 -51.451 9.38817 7.83741 2.27374e-13 -3 0 -51.837 -0.000136924 0.00025233 1.13687e-13 -2.35 -5.68434e-14 -35.7822 -0.0143227 -5.55674e-05 -5 17 -2.27374e-13 1.65544 0.235989 -10.1098 -6.45 0 2.27374e-13 -1.13085 -0.532807 -0.193875 -6.45 5.68434e-14 2.27374e-13 -38.9606 -17.5278 -7.20934 1.42109e-14 -32.4 -2 88.1125 -82.4412 108.631 0 -25.65 2 -15.4579 -8.84231 42.3579 0.5 -1.5 2.65 67.4403 36.96 -153.514 2.27374e-13 -3.8 3.7 0.669953 46.6731 0.0733733 -2.27374e-13 -3 2.7 0.0603468 27.3094 -0.0520396 5.68434e-14 -1.9 1.6 3.37934e-15 -4.77083e-15 -3.97569e-15 0 -8.3 1.9 34.048 -9.29309 2.44658 0 -4.5 -1.42109e-14 -2.6962e-07 -0.0024702 -0.00625376 1.13687e-13 -3.4 -2.84217e-14 -2.70936e-07 -0.0024772 -0.00626654 0.25 -2.2 0.4 3.37934e-15 -4.77083e-15 -3.97569e-15 0 -8.3 1 13.1443 -13.6282 1.1481 5.68434e-14 -4.65 1.27898e-13 5.4698 -0.00563781 -0.00235696 0 -3.3 -9.9476e-14 5.08747 -0.00474459 -0.0034723 0.5 -2.15 -0.8 3.37934e-15 -4.77083e-15 -3.97569e-15 0 -7.75 -0.2 21.7163 -7.80408 0.681185 0 -3.8 2.27374e-13 66.8897 0.00547305 0.0149493 0 -3.4 2.27374e-13 48.5011 0.00348976 0.00158643 0.75 -1.75 -1.85 3.37934e-15 -4.77083e-15 -3.97569e-15 8.52651e-14 -7.15 -1 38.5564 -20.7757 4.44451 0 -3 0 43.0105 -0.00176605 -0.00159041 2.27374e-13 -2.35 5.68434e-14 29.9425 -0.00347008 0.00731923 8 0 0 3.09839 -22.8972 -30.3073 0 -45 -1 0.273408 17.9074 -2.46641 0 -41 -2 -9.41939 1.84844 21.883 5.68434e-14 -7.5 12.5 -0 -3.9524e-16 -0 1.13687e-13 0 4 11.2922 -9.04557 57.5895 -8 1.42109e-14 0 5.69477 -12.8012 -7.0227 -1.13687e-13 -45 -1 -0.145886 23.3428 0.923894 -1.13687e-13 -41 -2 -2.07259 -11.6017 24.0529 -5.68434e-14 -7.5 12.5 -4.67115e-19 -5.82377e-18 1.59028e-15 0 -1.73472e-18 4 -0.90053 8.76496 53.7349 
-149.485 90.7642 1238.98 4.40328 -2.82128 157.89 0 8 0 11.8895 18.1926 2.35426 -1.13687e-13 8 0 -0.719609 6.91054 2.92198 0 8 2.27374e-13 -0.315405 3.46394 1.44918 -5.68434e-14 8 -2.27374e-13 -0.314631 3.4565 1.44603 1.7053e-13 17 0 2.79716 2.81283 -3.38686 -5.68434e-14 10.8 0 6.80634 6.31149 -8.14342 5 17 -2.27374e-13 -6.15097 0.962833 -7.13673 6.45 -1.13687e-13 0 -0.406974 0.0631391 1.96439 6.45 0 -2.27374e-13 40.9022 13.6432 10.0662 0 -32.4 -2 12.8501 -45.1552 -16.4082 -1.13687e-13 -25.65 2 -51.8491 -64.8911 -70.708 -0.5 -1.5 2.65 -7.81652 1.30071 100.968 -5.68434e-14 -3.8 3.7 -0.0897105 13.9623 0.00477871 2.84217e-13 -3 2.7 -0.0228759 64.5333 0.0177149 -1.13687e-13 -1.9 1.6 1.27222e-14 6.36111e-15 9.54166e-15 0 -8.3 1.9 -34.3059 17.9062 6.06914 0 -4.5 -5.68434e-14 -85.6876 -0.00372739 0.00368035 -1.13687e-13 -3.4 0 -77.4578 0.00143969 0.000789835 -0.25 -2.2 0.4 1.27222e-14 6.36111e-15 9.54166e-15 2.27374e-13 -8.3 1 -41.0736 15.6625 7.22282 -2.27374e-13 -4.65 -1.7053e-13 -68.8301 0.00468914 -0.0113565 0 -3.3 -1.13687e-13 -90.0002 4.69132e-14 -5.40694e-14 -0.5 -2.15 -0.8 1.27222e-14 6.36111e-15 9.54166e-15 -1.13687e-13 -7.75 -0.2 -54.3653 9.33604 7.83257 2.27374e-13 -3.8 0 -50.651 -0.00266784 0.00395213 1.13687e-13 -3.4 -1.13687e-13 -90.0002 0.00281162 -8.5875e-14 -0.75 -1.75 -1.85 1.27222e-14 6.36111e-15 9.54166e-15 -1.13687e-13 -7.15 -1 -51.0286 9.48487 7.7906 0 -3 1.13687e-13 -52.1915 -0.000187958 0.000288116 1.13687e-13 -2.35 -5.68434e-14 -36.0319 -0.013773 -0.000115904 -5 17 -2.27374e-13 1.6442 0.237676 -10.0863 -6.45 -1.13687e-13 2.27374e-13 -1.1328 -0.532623 -0.210678 -6.45 0 0 -38.8881 -17.4224 -7.35863 2.84217e-14 -32.4 -2 88.5032 -82.4171 109.071 2.84217e-14 -25.65 2 -15.4074 -8.90743 42.3217 0.5 -1.5 2.65 67.3633 36.9598 -153.389 4.54747e-13 -3.8 3.7 0.669871 46.7201 0.0734372 -2.27374e-13 -3 2.7 0.0603468 27.3094 -0.0520396 5.68434e-14 -1.9 1.6 3.18055e-15 -4.77083e-15 -6.55989e-15 0 -8.3 1.9 34.0185 -9.34559 2.46008 0 -4.5 1.42109e-14 -2.67125e-07 -0.00245229 -0.00624116 -1.13687e-13 -3.4 1.42109e-14 -2.6848e-07 -0.00245923 -0.00625512 0.25 -2.2 0.4 3.18055e-15 -4.77083e-15 -6.55989e-15 -1.42109e-14 -8.3 1 12.988 -13.6938 1.14025 8.52651e-14 -4.65 1.13687e-13 5.48148 -0.005679 -0.00232983 0 -3.3 -1.13687e-13 5.09761 -0.00477795 -0.00340311 0.5 -2.15 -0.8 3.18055e-15 -4.77083e-15 -6.55989e-15 -1.42109e-14 -7.75 -0.2 21.5382 -7.80959 0.681306 -1.13687e-13 -3.8 2.41585e-13 66.82 0.00560052 0.0149468 0 -3.4 2.27374e-13 48.4299 0.00347375 0.00158297 0.75 -1.75 -1.85 3.18055e-15 -4.77083e-15 -6.55989e-15 5.68434e-14 -7.15 -1 38.3864 -20.8061 4.43516 0 -3 0 43.0121 -0.00176449 -0.00157706 -2.27374e-13 -2.35 0 29.9435 -0.00355448 0.00735205 8 -1.42109e-14 0 3.0997 -22.8865 -30.2992 1.13687e-13 -45 -1 0.27198 17.9056 -2.46034 -1.13687e-13 -41 -2 -9.4094 1.83949 21.8876 5.68434e-14 -7.5 12.5 2.20695e-32 -3.97569e-16 3.18055e-15 5.68434e-14 0 4 11.2901 -9.04441 57.5889 -8 0 -4.54747e-13 5.68963 -12.7752 -7.01792 0 -45 -1 -0.142832 23.3058 0.906388 0 -41 -2 -2.06183 -11.5943 24.0615 -4.26326e-14 -7.5 12.5 5.8541e-19 -5.96936e-18 7.95139e-16 1.42109e-14 0 4 -0.899351 8.75113 53.8395 
-149.496 90.7701 1238.95 4.39987 -2.8272 157.864 0 8 0 11.8961 18.2068 2.34668 -1.13687e-13 8 0 -0.70752 6.9153 2.91718 0 8 0 -0.309344 3.4662 1.44601 0 8 0 -0.308585 3.45863 1.44286 1.42109e-13 17 -2.27374e-13 2.7629 2.8127 -3.36327 -1.42109e-13 10.8 -2.27374e-13 6.7239 6.31258 -8.08552 5 17 -2.27374e-13 -6.18525 0.954693 -7.12856 6.45 -1.13687e-13 -2.27374e-13 -0.407423 0.0632673 1.95821 6.45 1.13687e-13 -2.27374e-13 40.535 13.9004 10.4814 -5.68434e-14 -32.4 -2 12.9111 -45.4433 -16.5505 0 -25.65 2 -50.8109 -64.8609 -69.8538 -0.5 -1.5 2.65 -8.03514 1.59917 100.694 0 -3.8 3.7 -0.0894954 13.8747 0.00465038 2.27374e-13 -3 2.7 -0.0215023 64.428 0.0164812 0 -1.9 1.6 3.18055e-15 -3.18055e-15 3.18055e-15 0 -8.3 1.9 -34.3696 17.8541 6.06239 2.27374e-13 -4.5 0 -85.648 -0.00534008 0.00514553 -1.7053e-13 -3.4 5.68434e-14 -77.3615 0.000591646 -0.000132666 -0.25 -2.2 0.4 3.18055e-15 -3.18055e-15 3.18055e-15 1.13687e-13 -8.3 1 -40.8529 15.6541 7.16958 0 -4.65 -2.27374e-13 -68.9679 0.00489871 -0.0117036 0 -3.3 -1.13687e-13 -90.0002 -2.38542e-15 9.54166e-15 -0.5 -2.15 -0.8 3.18055e-15 -3.18055e-15 3.18055e-15 0 -7.75 -0.2 -54.1154 9.39896 7.81143 0 -3.8 0 -50.4425 -0.00273568 0.00604873 1.13687e-13 -3.4 -2.27374e-13 -90.0002 0.00281162 -2.54444e-14 -0.75 -1.75 -1.85 3.18055e-15 -3.18055e-15 3.18055e-15 1.13687e-13 -7.15 -1 -50.6901 9.56008 7.75141 0 -3 5.68434e-14 -52.3971 -0.000281121 0.000382676 2.27374e-13 -2.35 -1.13687e-13 -36.1771 -0.0131987 -0.00014391 -5 17 -2.27374e-13 1.63557 0.240541 -10.0507 -6.45 0 0 -1.13485 -0.532474 -0.225808 -6.45 5.68434e-14 0 -38.8477 -17.2812 -7.5497 2.84217e-14 -32.4 -2 89.0584 -82.3538 109.66 0 -25.65 2 -15.3785 -8.95944 42.3048 0.5 -1.5 2.65 67.2652 36.9437 -153.264 2.27374e-13 -3.8 3.7 0.669757 46.7837 0.0735239 0 -3 2.7 0.0603468 27.3094 -0.0520396 8.52651e-14 -1.9 1.6 3.37934e-15 -3.18055e-15 -4.47266e-15 -1.42109e-14 -8.3 1.9 34.0164 -9.38902 2.47271 1.13687e-13 -4.5 0 -2.64638e-07 -0.00243437 -0.00622858 0 -3.4 0 -2.66031e-07 -0.00244125 -0.00624371 0.25 -2.2 0.4 3.37934e-15 -3.18055e-15 -4.47266e-15 -1.42109e-14 -8.3 1 12.8397 -13.7503 1.1324 0 -4.65 9.9476e-14 5.48254 -0.00572082 -0.00230375 0 -3.3 -1.27898e-13 5.09852 -0.00481181 -0.00333472 0.5 -2.15 -0.8 3.37934e-15 -3.18055e-15 -4.47266e-15 -2.84217e-14 -7.75 -0.2 21.378 -7.80364 0.681431 0 -3.8 2.27374e-13 66.7219 0.00572787 0.0149448 0 -3.4 2.41585e-13 48.3293 0.00345782 0.00158036 0.75 -1.75 -1.85 3.37934e-15 -3.18055e-15 -4.47266e-15 5.68434e-14 -7.15 -1 38.2411 -20.8264 4.42554 0 -3 0 42.9239 -0.00176326 -0.00156301 0 -2.35 0 29.8886 -0.00363911 0.00738543 8 -7.10543e-15 0 3.09892 -22.8744 -30.2908 0 -45 -1 0.269694 17.9029 -2.45154 0 -41 -2 -9.39721 1.83043 21.8769 -5.68434e-14 -7.5 12.5 3.88251e-19 -3.97569e-16 3.18055e-15 1.7053e-13 0 4 11.2894 -9.04136 57.5878 -8 -7.10543e-15 -4.54747e-13 5.68165 -12.748 -7.01065 -5.68434e-14 -45 -1 -0.139343 23.2656 0.886285 5.68434e-14 -41 -2 -2.0489 -11.5853 24.0667 -5.68434e-14 -7.5 12.5 2.79056e-19 -5.82377e-18 -0 1.42109e-14 3.46945e-18 4 -0.901335 8.73482 53.9833 
